<?xml version="1.0" standalone="no"?>
<!DOCTYPE svg PUBLIC "-//W3C//DTD SVG 20010904//EN"
 "http://www.w3.org/TR/2001/REC-SVG-20010904/DTD/svg10.dtd">
<svg version="1.0" xmlns="http://www.w3.org/2000/svg"
 width="900.000000pt" height="900.000000pt" viewBox="0 0 900.000000 900.000000"
 preserveAspectRatio="xMidYMid meet">

<g transform="translate(0.000000,900.000000) scale(0.100000,-0.100000)"
fill="#000000" stroke="none">
<path d="M4991 7123 c-13 -3 -42 -23 -65 -46 -57 -58 -98 -148 -127 -280 l-13
-59 -35 6 c-168 26 -339 37 -471 32 -226 -9 -330 -18 -330 -28 0 -5 11 -24 24
-41 27 -36 64 -114 78 -167 14 -55 52 -344 77 -590 6 -58 15 -150 21 -205 6
-55 15 -156 21 -225 51 -619 46 -575 89 -723 15 -51 64 -104 108 -118 47 -13
101 7 132 50 62 88 82 182 130 601 6 52 15 129 21 170 10 80 24 221 39 390 11
124 45 433 59 540 6 41 16 121 22 177 7 56 15 107 19 113 5 8 23 7 66 -5 32
-9 70 -19 84 -22 35 -7 233 -102 241 -115 4 -6 13 -8 21 -6 10 4 18 38 26 109
40 348 -31 481 -237 442z"/>
<path d="M3818 6763 c-31 -8 -20 -23 16 -23 42 0 68 9 60 21 -5 9 -45 10 -76
2z"/>
<path d="M3725 6723 c-117 -29 -261 -92 -370 -164 -105 -68 -293 -257 -373
-376 -34 -50 -62 -94 -62 -97 0 -3 15 -6 34 -6 76 0 127 -38 181 -135 37 -66
66 -172 115 -415 5 -25 16 -76 24 -115 8 -38 19 -95 25 -125 6 -30 22 -112 36
-181 14 -70 25 -129 25 -133 0 -14 -21 -5 -27 12 -12 35 -55 82 -96 106 -87
50 -156 44 -246 -25 -29 -22 -54 -39 -55 -37 -3 3 -51 259 -66 348 -31 178
-43 287 -44 382 -1 67 -5 107 -11 105 -5 -2 -30 -41 -55 -88 -173 -321 -234
-409 -521 -759 -236 -288 -276 -340 -314 -415 -43 -86 -42 -111 8 -156 58 -53
147 -59 272 -17 156 53 242 116 503 370 112 109 210 198 218 198 7 0 16 -10
18 -22 6 -29 34 -161 46 -213 5 -22 11 -51 13 -65 3 -14 14 -72 25 -130 11
-58 25 -134 31 -170 6 -36 22 -134 36 -217 14 -84 25 -169 25 -189 0 -68 24
-29 72 117 27 79 64 191 83 249 52 159 74 245 90 359 15 105 21 126 29 100 63
-205 97 -276 161 -336 28 -26 43 -33 76 -33 105 0 145 74 156 290 5 106 1 183
-37 645 -5 66 -12 154 -15 195 -3 41 -12 156 -21 255 -38 475 -37 648 6 775
12 36 26 69 31 75 11 11 12 45 2 44 -5 -1 -17 -4 -28 -6z"/>
<path d="M6105 6693 c-31 -8 -92 -56 -126 -99 -30 -38 -120 -215 -161 -318
-27 -67 -128 -378 -128 -393 0 -6 -4 -14 -9 -17 -5 -4 -23 38 -41 91 -37 115
-104 261 -151 330 -73 108 -229 263 -265 263 -11 0 -20 -56 -43 -265 -13 -113
-38 -318 -51 -410 -5 -38 -12 -92 -15 -120 -8 -75 -43 -338 -57 -440 -7 -49
-13 -173 -13 -275 0 -173 1 -188 23 -227 39 -73 103 -91 171 -48 51 32 81 72
126 169 67 146 97 228 185 506 105 331 121 380 130 380 4 0 10 -15 13 -32 2
-18 18 -85 34 -148 56 -215 72 -297 113 -554 18 -111 24 -135 34 -125 2 2 32
92 65 199 34 107 66 206 71 220 5 14 27 86 50 160 23 74 45 146 49 160 5 14
14 43 20 65 6 22 21 78 35 125 13 47 36 139 51 205 14 66 36 158 47 205 41
172 32 326 -22 375 -20 18 -97 29 -135 18z"/>
<path d="M2880 6047 c-35 -28 -67 -107 -42 -107 7 0 65 110 60 115 -2 2 -10
-2 -18 -8z"/>
<path d="M5845 4863 c-10 -27 -21 -57 -25 -68 -12 -31 -121 -366 -131 -400
-27 -104 -48 -197 -54 -245 -9 -80 -16 -110 -24 -110 -3 0 -15 33 -25 73 -35
138 -112 268 -173 293 -47 20 -110 4 -144 -36 -52 -62 -71 -255 -49 -515 6
-66 15 -177 20 -247 22 -281 30 -391 45 -573 44 -532 39 -702 -27 -841 -11
-25 -18 -48 -14 -51 5 -6 125 23 156 37 8 4 44 20 80 36 145 63 299 179 415
312 83 94 187 241 179 253 -2 4 -22 7 -44 7 -78 -1 -162 88 -205 217 -13 38
-49 193 -65 280 -18 97 -91 457 -106 523 -11 53 -13 77 -5 85 7 7 12 5 17 -9
13 -37 57 -86 102 -115 36 -23 58 -29 99 -29 59 0 76 7 146 63 32 26 48 34 51
25 39 -125 119 -666 114 -768 -2 -39 -2 -70 0 -70 9 0 30 32 60 90 114 228
276 469 468 700 93 111 276 339 317 393 15 20 42 67 59 103 37 79 33 101 -25
148 -37 29 -43 31 -125 30 -95 0 -148 -15 -247 -67 -110 -57 -208 -138 -406
-334 -107 -106 -200 -193 -207 -193 -6 0 -14 10 -16 23 -65 299 -111 544 -141
747 -9 58 -20 124 -25 147 -6 23 -10 62 -10 87 0 25 -4 46 -9 46 -5 0 -17 -21
-26 -47z"/>
<path d="M4525 4159 c-20 -18 -42 -44 -50 -60 -30 -58 -58 -167 -70 -279 -3
-30 -10 -84 -15 -120 -5 -36 -14 -108 -20 -160 -6 -52 -15 -129 -20 -170 -11
-85 -27 -247 -40 -395 -17 -200 -85 -777 -97 -817 -2 -10 -14 -18 -26 -18 -56
0 -325 107 -369 147 -10 9 -21 13 -25 10 -11 -11 -32 -188 -33 -271 0 -82 21
-185 46 -224 43 -67 167 -85 240 -36 48 33 58 45 90 114 28 58 44 106 64 185
7 28 15 53 16 56 2 4 43 -1 91 -9 64 -12 158 -16 348 -17 358 0 434 11 378 56
-23 19 -77 143 -92 209 -13 60 -47 322 -61 465 -5 50 -16 162 -25 250 -15 150
-23 244 -45 510 -29 350 -48 459 -92 532 -47 79 -130 97 -193 42z"/>
<path d="M3732 4076 c-86 -82 -148 -227 -302 -716 -29 -91 -62 -196 -74 -234
-12 -39 -26 -71 -32 -73 -8 -2 -35 90 -65 217 -40 177 -58 262 -79 380 -14 82
-40 242 -40 252 0 4 -4 8 -8 8 -4 0 -21 -42 -36 -92 -16 -51 -42 -133 -58
-183 -42 -125 -99 -304 -108 -340 -5 -16 -25 -84 -44 -150 -39 -126 -86 -303
-106 -395 -69 -311 -73 -333 -67 -411 10 -147 69 -199 184 -163 96 30 128 77
284 409 17 38 129 383 129 400 0 43 26 -1 59 -101 68 -202 153 -345 278 -464
88 -83 119 -110 131 -110 8 0 18 69 43 280 6 52 17 147 25 210 8 63 19 150 24
193 6 42 14 112 20 155 5 42 16 129 24 192 8 63 21 158 28 210 18 134 18 448
-2 486 -31 62 -60 84 -112 84 -44 0 -54 -4 -96 -44z"/>
<path d="M6126 2868 c-14 -28 -24 -54 -21 -56 13 -14 65 60 65 93 0 30 -19 14
-44 -37z"/>
<path d="M5096 2111 c-14 -22 52 -27 80 -6 18 13 16 14 -28 15 -26 0 -49 -4
-52 -9z"/>
</g>
</svg>
